# xmcd
#
# Track frame offsets: 
#        150
#        29197
#        56361
#        89866
#        128565
#        178290
#        203493
#        256790
#
# Disc length: 4512 seconds
#
# Revision: 1
# Processed by: cddbd v1.5.2PL0 Copyright (c) Steve Scherf et al.
# Submitted via: ExactAudioCopyFreeDBPlugin 1.0
#
DISCID=6f119e08
DTITLE=Ten Years After - Recorded Live [CD1) (US R2-527200)
DYEAR=2013
DGENRE=Blues Rock
TTITLE0=One Of These Days
TTITLE1=You Give Me Loving
TTITLE2=Good Morning Little Schoolgirl
TTITLE3=The Hobbit
TTITLE4=Help Me
TTITLE5=Time Is Flying
TTITLE6=Standing At The Station
TTITLE7=Jam
EXTD=
EXTT0=
EXTT1=
EXTT2=
EXTT3=
EXTT4=
EXTT5=
EXTT6=
EXTT7=
PLAYORDER=
